<?xml version="1.0" encoding="UTF-8"?>
<svg version="1.1" xmlns="http://www.w3.org/2000/svg" width="1080" height="1080">
<path d="M0 0 C356.4 0 712.8 0 1080 0 C1080 356.4 1080 712.8 1080 1080 C723.6 1080 367.2 1080 0 1080 C0 723.6 0 367.2 0 0 Z " fill="#FEFEFE" transform="translate(0,0)"/>
<path d="M0 0 C1.25177032 -0.00570007 2.50354065 -0.01140015 3.79324341 -0.01727295 C6.43739434 -0.02668764 9.08143285 -0.03360179 11.72558594 -0.03710938 C15.71045121 -0.04361803 19.69494296 -0.07779703 23.6796875 -0.109375 C43.47382375 -0.19498114 61.08999886 1.28206183 79.8203125 7.828125 C80.77570419 8.1557634 80.77570419 8.1557634 81.75039673 8.49002075 C106.69067719 17.04532181 129.27794075 28.67919655 149.8828125 45.203125 C150.44129883 45.64591797 150.99978516 46.08871094 151.57519531 46.54492188 C166.04471603 58.08929053 178.95392189 71.2685271 189.8828125 86.203125 C190.52790771 87.07300049 190.52790771 87.07300049 191.18603516 87.96044922 C204.84226211 106.41137083 214.82062647 125.3935696 221.8828125 147.203125 C222.26308594 148.36199219 222.64335938 149.52085937 223.03515625 150.71484375 C228.96797278 170.08584712 232.06767125 189.86581954 232.0078125 210.078125 C232.01167969 211.37621094 232.01554687 212.67429687 232.01953125 214.01171875 C232.0120092 221.4660729 231.72990849 228.79537673 230.8828125 236.203125 C231.63965332 236.35096436 232.39649414 236.49880371 233.17626953 236.65112305 C246.71941795 239.41326075 258.6493693 246.01926572 268.8828125 255.203125 C269.68847656 255.89019531 270.49414062 256.57726562 271.32421875 257.28515625 C290.55075659 273.98426189 307.5742023 296.27387286 310.10357666 322.49139404 C310.37554626 327.37154768 310.36814958 332.24477736 310.29443359 337.13061523 C310.25749552 339.66235077 310.25341882 342.19262981 310.25390625 344.72460938 C310.2440857 346.36199165 310.23243335 347.9993642 310.21875 349.63671875 C310.21652435 350.37957626 310.21429871 351.12243378 310.21200562 351.88780212 C310.1215191 356.93537124 309.25625852 361.34263313 307.8828125 366.203125 C299.84729557 367.00667669 293.24905105 364.09996039 285.8828125 361.203125 C285.88804932 360.50340576 285.89328613 359.80368652 285.89868164 359.08276367 C285.91972076 355.85206025 285.93255716 352.62137134 285.9453125 349.390625 C285.95369141 348.29041016 285.96207031 347.19019531 285.97070312 346.05664062 C286.04011738 322.52520896 280.61479176 302.08337873 264.8828125 284.203125 C263.93341797 282.96175781 263.93341797 282.96175781 262.96484375 281.6953125 C251.28326684 267.71248685 231.42223997 259.75976345 214.15527344 255.97412109 C206.3178571 254.05488806 202.64667956 250.60072031 197.8828125 244.203125 C197.10292969 243.24664063 196.32304688 242.29015625 195.51953125 241.3046875 C194.55466797 240.07878906 194.55466797 240.07878906 193.5703125 238.828125 C183.05986155 225.91992109 170.96782105 214.46100647 155.8828125 207.203125 C154.90570312 206.71199219 153.92859375 206.22085938 152.921875 205.71484375 C149.30344553 204.01952631 145.63868249 202.55728221 141.8828125 201.203125 C141.1206543 200.9237207 140.35849609 200.64431641 139.57324219 200.35644531 C125.39669402 195.41503329 111.68864576 194.63762779 96.8203125 194.640625 C95.94498871 194.63790588 95.06966492 194.63518677 94.16781616 194.63238525 C80.080133 194.63733716 66.73518836 196.00252349 53.3828125 200.828125 C52.68269043 201.07973389 51.98256836 201.33134277 51.26123047 201.59057617 C39.02228688 206.21843533 28.66928431 213.61744728 18.8828125 222.203125 C18.04234375 222.89921875 17.201875 223.5953125 16.3359375 224.3125 C5.65555302 233.40077748 -3.32522335 245.38961771 -9.1171875 258.203125 C-9.17124413 259.8689148 -9.18029491 261.53765353 -9.1171875 263.203125 C2.50239352 264.19599127 14.10353602 264.51018595 25.7578125 264.765625 C27.6211009 264.80893843 29.48438225 264.85255618 31.34765625 264.89648438 C35.85930159 265.00219925 40.37102169 265.1038209 44.8828125 265.203125 C44.59612401 267.20384466 44.30318665 269.20366919 44.0078125 271.203125 C43.84539062 272.316875 43.68296875 273.430625 43.515625 274.578125 C42.83237138 278.49207167 41.84643966 282.34861637 40.8828125 286.203125 C14.4828125 286.203125 -11.9171875 286.203125 -39.1171875 286.203125 C-39.1171875 256.8525177 -21.68541599 228.99764743 -1.6171875 208.56640625 C13.91952126 193.329386 32.53597227 183.46450309 52.8828125 176.203125 C53.87539063 175.84347656 54.86796875 175.48382813 55.890625 175.11328125 C74.80713091 169.1536924 97.17775273 170.3065232 116.8828125 169.203125 C115.56821768 166.32725274 114.12874813 164.15854866 111.9765625 161.84765625 C111.40284912 161.22979248 110.82913574 160.61192871 110.23803711 159.9753418 C109.62581299 159.32863525 109.01358887 158.68192871 108.3828125 158.015625 C107.75060791 157.3450708 107.11840332 156.6745166 106.46704102 155.98364258 C101.50562989 150.76789697 96.41809014 145.81300019 90.8828125 141.203125 C89.94695312 140.40648437 89.01109375 139.60984375 88.046875 138.7890625 C76.06228432 129.03837537 61.91600476 121.03750197 46.8828125 117.203125 C45.85542969 116.90792969 44.82804687 116.61273438 43.76953125 116.30859375 C35.25638184 114.19717844 26.9988341 113.92167022 18.2578125 113.890625 C17.13818115 113.88514648 16.0185498 113.87966797 14.86499023 113.87402344 C-19.81041386 114.16859296 -48.28852108 131.18707769 -73.1171875 154.203125 C-73.72175781 154.74195313 -74.32632813 155.28078125 -74.94921875 155.8359375 C-85.44701182 165.6207657 -92.21094457 178.32404899 -98.1171875 191.203125 C-98.65859375 192.3478125 -99.2 193.4925 -99.7578125 194.671875 C-103.02989576 201.69288493 -103.02989576 201.69288493 -102.1171875 209.203125 C-100.06886705 211.70709144 -100.06886705 211.70709144 -97.3671875 214.015625 C-87.32844649 223.43144496 -70.63358507 240.58417976 -69.9921875 255.015625 C-70.0334375 255.7375 -70.0746875 256.459375 -70.1171875 257.203125 C-71.72400391 257.83541016 -71.72400391 257.83541016 -73.36328125 258.48046875 C-74.76047052 259.03371819 -76.15760301 259.58711102 -77.5546875 260.140625 C-78.26173828 260.41841797 -78.96878906 260.69621094 -79.69726562 260.98242188 C-83.16392631 262.16534534 -83.16392631 262.16534534 -86.1171875 264.203125 C-88.45016183 264.24405437 -90.78423975 264.24554223 -93.1171875 264.203125 C-93.46910156 263.22472656 -93.82101562 262.24632812 -94.18359375 261.23828125 C-97.17890538 253.185683 -100.35831703 246.69828941 -106.1171875 240.203125 C-106.74367188 239.38070312 -107.37015625 238.55828125 -108.015625 237.7109375 C-115.87986718 228.32647006 -128.05283436 222.42513495 -140.1171875 221.203125 C-160.26939902 219.46654183 -160.26939902 219.46654183 -178.1171875 227.203125 C-179.13554687 227.99203125 -180.15390625 228.7809375 -181.203125 229.59375 C-192.91035153 239.21001477 -200.66224923 252.10263094 -202.35205078 267.31787109 C-203.81384161 285.74295047 -197.81350744 302.79142195 -186.0625 317.0859375 C-178.32672509 325.50519453 -163.90187756 335.59567317 -152.01334411 336.33373553 C-150.78475898 336.33772259 -150.78475898 336.33772259 -149.53135395 336.3417902 C-148.584864 336.34726464 -147.63837405 336.35273909 -146.66320258 336.35837942 C-145.62138507 336.35935753 -144.57956755 336.36033564 -143.50617981 336.36134338 C-142.4010574 336.36628136 -141.29593499 336.37121934 -140.15732402 336.37630695 C-136.43536927 336.39172739 -132.71343183 336.40005488 -128.99145508 336.40844727 C-126.33094529 336.41802222 -123.67043966 336.42798847 -121.00993347 336.43844604 C-115.27232905 336.46021543 -109.5347223 336.47835823 -103.79709816 336.49405098 C-95.50141615 336.5167454 -87.20575969 336.54488882 -78.91009935 336.57437026 C-65.45155212 336.62205142 -51.99299445 336.66531418 -38.53442383 336.70581055 C-25.45922025 336.74516281 -12.38402595 336.78658838 0.69116211 336.83081055 C1.49686274 336.83353482 2.30256338 336.83625909 3.13267919 336.83906592 C7.17456664 336.85274535 11.21645395 336.86646563 15.25834119 336.88020623 C48.79981247 336.99417924 82.34130311 337.10098677 115.8828125 337.203125 C115.90593491 348.65962516 115.92372707 360.11611981 115.93462467 371.57263851 C115.93985372 376.89177713 115.94695177 382.21089984 115.95825195 387.5300293 C115.96908005 392.65876485 115.97508917 397.78748506 115.97768974 402.91623116 C115.97954413 404.87754114 115.98316501 406.83885024 115.98854256 408.80015373 C115.99575196 411.53727947 115.99680349 414.27434097 115.99633789 417.01147461 C115.99993317 417.83074432 116.00352844 418.65001404 116.00723267 419.49411011 C115.99686466 425.08907284 115.99686466 425.08907284 114.8828125 426.203125 C113.17508892 426.29026331 111.46382601 426.31012507 109.75390625 426.30078125 C108.20219727 426.29594727 108.20219727 426.29594727 106.61914062 426.29101562 C104.9862207 426.27844727 104.9862207 426.27844727 103.3203125 426.265625 C101.6815918 426.25885742 101.6815918 426.25885742 100.00976562 426.25195312 C97.30072755 426.24012326 94.59179651 426.22364043 91.8828125 426.203125 C91.75961676 404.83340164 92.01554269 383.55964408 92.8828125 362.203125 C80.6728125 362.203125 68.4628125 362.203125 55.8828125 362.203125 C55.8828125 384.973125 55.8828125 407.743125 55.8828125 431.203125 C48.6228125 431.203125 41.3628125 431.203125 33.8828125 431.203125 C33.8828125 408.433125 33.8828125 385.663125 33.8828125 362.203125 C22.6628125 362.203125 11.4428125 362.203125 -0.1171875 362.203125 C-0.1171875 382.993125 -0.1171875 403.783125 -0.1171875 425.203125 C-8.0371875 425.203125 -15.9571875 425.203125 -24.1171875 425.203125 C-24.1171875 404.413125 -24.1171875 383.623125 -24.1171875 362.203125 C-35.6671875 362.203125 -47.2171875 362.203125 -59.1171875 362.203125 C-59.1171875 382.003125 -59.1171875 401.803125 -59.1171875 422.203125 C-75.9921875 424.453125 -75.9921875 424.453125 -83.1171875 424.203125 C-84.44672542 421.54404916 -84.23704781 419.53747132 -84.23071289 416.56005859 C-84.23063736 415.37898529 -84.23056183 414.19791199 -84.23048401 412.98104858 C-84.22532272 411.70081818 -84.22016144 410.42058777 -84.21484375 409.1015625 C-84.21272133 407.14145737 -84.21272133 407.14145737 -84.21055603 405.14175415 C-84.20673644 401.66636242 -84.19691092 398.19101243 -84.18585205 394.71563721 C-84.17562593 391.16980555 -84.17105583 387.62396715 -84.16601562 384.078125 C-84.15528816 377.11977451 -84.13821842 370.16145176 -84.1171875 363.203125 C-85.11645264 363.17806885 -86.11571777 363.1530127 -87.14526367 363.12719727 C-96.2498577 362.89771292 -105.35410579 362.65778352 -114.45814514 362.40722656 C-119.14863693 362.27924989 -123.83907903 362.16256345 -128.53024292 362.06236267 C-160.04645871 361.37705771 -182.05927656 356.13222831 -204.73266602 333.12646484 C-215.90922092 321.24686006 -226.40223376 302.39539573 -226.34765625 285.8359375 C-226.34719803 285.15691376 -226.34673981 284.47789001 -226.3462677 283.77828979 C-226.3432669 282.35136147 -226.33544644 280.92443578 -226.32299805 279.49755859 C-226.30479363 277.34069896 -226.30248854 275.18427214 -226.30273438 273.02734375 C-226.25793645 254.45699431 -223.16038859 240.89102179 -211.1171875 226.203125 C-206.81152923 220.55908138 -203.96722426 215.98093629 -203.6953125 208.7578125 C-203.64310547 207.69522217 -203.59089844 206.63263184 -203.53710938 205.5378418 C-203.48103516 204.39613525 -203.42496094 203.25442871 -203.3671875 202.078125 C-199.94477881 148.63174899 -176.85791299 102.27102902 -140.1171875 64.203125 C-138.76753906 62.79160156 -138.76753906 62.79160156 -137.390625 61.3515625 C-131.66375154 55.47924464 -125.59933991 50.22008301 -119.1171875 45.203125 C-118.13347168 44.4294458 -118.13347168 44.4294458 -117.12988281 43.64013672 C-93.30211682 24.99676717 -67.28503848 12.81037695 -38.1171875 5.203125 C-36.5950374 4.79562776 -35.07290128 4.3880783 -33.55078125 3.98046875 C-22.23390233 1.01673829 -11.66313745 0.04184637 0 0 Z " fill="#3096CA" transform="translate(523.1171875,324.796875)"/>
<path d="M0 0 C0.7204953 0.00060425 1.4409906 0.0012085 2.18331909 0.00183105 C20.83554746 0.04405338 39.4059677 0.49601057 57.3125 6.1875 C58.0638623 6.42065918 58.81522461 6.65381836 59.58935547 6.89404297 C87.85015148 15.79828647 113.18509224 29.94257291 134.97265625 50.03515625 C137.92551417 52.75139116 140.9643928 55.3631985 144.01171875 57.97265625 C155.96958231 69.48387635 166.16786426 83.78293762 174.3125 98.1875 C174.66763672 98.80496094 175.02277344 99.42242187 175.38867188 100.05859375 C184.24431418 115.55980472 190.86424287 131.92935215 194.5234375 149.42578125 C195.03626231 151.87058465 195.62906518 154.30042447 196.3125 156.703125 C197.7923937 162.54111408 198.194945 168.55919526 198.74511719 174.54125977 C198.93681033 176.61752999 199.13955584 178.69250407 199.34375 180.76757812 C199.99942056 187.59507749 200.47966363 194.32619289 200.3125 201.1875 C196.49558051 197.60190896 193.32004315 193.7375392 190.15625 189.56640625 C189.5478125 188.78136719 188.939375 187.99632812 188.3125 187.1875 C187.54550781 186.19363281 186.77851562 185.19976563 185.98828125 184.17578125 C177.22738053 173.76664327 161.47201926 167.99228166 149.36328125 162.34375 C148.73357422 162.04355957 148.10386719 161.74336914 147.45507812 161.43408203 C145.7426451 160.61852895 144.02197926 159.82032589 142.30078125 159.0234375 C136.28889694 155.32986152 133.42747359 149.87258364 130.25 143.8125 C121.08364826 127.01370957 108.33010138 111.12887019 93.3125 99.1875 C92.01119141 98.12982422 92.01119141 98.12982422 90.68359375 97.05078125 C62.6910955 75.09661152 26.82963995 67.15900432 -8.21972656 70.42333984 C-12.80541263 70.99986691 -17.2195171 72.02619756 -21.6875 73.1875 C-23.22606618 73.54511086 -24.76516084 73.90045317 -26.3046875 74.25390625 C-62.83087458 82.91982955 -96.63863803 107.37305932 -116.6875 139.1875 C-123.94539678 151.04823501 -129.89351226 163.56388419 -135.6875 176.1875 C-139.58163167 176.2558181 -143.1963376 176.25815445 -147.0546875 175.703125 C-158.65926844 174.05602319 -170.91026664 174.29522589 -182.19140625 177.53125 C-184.6875 178.1875 -184.6875 178.1875 -188.6875 178.1875 C-190.13501529 164.05699362 -185.8485445 151.54603822 -181.6875 138.1875 C-181.26529346 136.76350418 -180.84447629 135.33909476 -180.42578125 133.9140625 C-173.54925421 111.66789433 -161.43308651 91.10151411 -146.6875 73.1875 C-146.23826172 72.63143066 -145.78902344 72.07536133 -145.32617188 71.50244141 C-130.02747005 52.62375825 -111.68411311 37.15691741 -90.52001953 25.22119141 C-89.31369125 24.54072326 -88.11138861 23.85306044 -86.91357422 23.15771484 C-71.88235768 14.44402652 -55.77618638 8.83388214 -39.0625 4.25 C-37.99668701 3.95536865 -36.93087402 3.6607373 -35.83276367 3.35717773 C-23.93336993 0.22389716 -12.24236822 -0.01898832 0 0 Z " fill="#FEFEFE" transform="translate(532.6875,345.8125)"/>
<path d="M0 0 C5.86854438 0.51030821 12.00716158 1.74795965 17 5 C17.87975339 7.46976638 18.25019539 9.12559394 17.52197266 11.6706543 C16.76363642 15.0547918 16.81690515 18.42747944 16.796875 21.87890625 C16.78832489 23.02987038 16.78832489 23.02987038 16.77960205 24.2040863 C16.77016836 25.82883332 16.76362455 27.45359932 16.75976562 29.07836914 C16.7501285 31.52981393 16.71911942 33.98039485 16.6875 36.43164062 C16.56365694 54.43463692 21.28456591 69.81259268 33.95776367 82.94848633 C35.29868059 84.30544018 36.64902289 85.65306169 38 87 C38.58394531 87.64324219 39.16789063 88.28648437 39.76953125 88.94921875 C50.71205371 100.83362922 65.96567247 108.69376675 81 114 C82 115 82 115 82.29296875 117.60546875 C81.93208623 121.78689421 80.39155786 124.76279798 78.3125 128.3125 C77.97283203 128.94478516 77.63316406 129.57707031 77.28320312 130.22851562 C74.67686749 134.77377011 74.67686749 134.77377011 71.64208984 135.78808594 C68.65168683 136.02793715 67.19443226 135.58464407 64.48828125 134.33984375 C63.65272705 133.96134277 62.81717285 133.5828418 61.95629883 133.19287109 C61.08384521 132.77859863 60.2113916 132.36432617 59.3125 131.9375 C58.41490967 131.52064941 57.51731934 131.10379883 56.5925293 130.67431641 C46.87338083 126.10049556 38.2654692 120.87368916 30 114 C29.20851563 113.35546875 28.41703125 112.7109375 27.6015625 112.046875 C11.73174729 98.52999769 -3.04000514 76.95437352 -6 56 C-6.19215106 51.26436437 -6.18581012 46.52901285 -6.18530273 41.79003906 C-6.18746708 39.53430669 -6.20559003 37.27908213 -6.22460938 35.0234375 C-6.32215049 10.53691749 -6.32215049 10.53691749 0 0 Z " fill="#1D77BE" transform="translate(735,658)"/>
<path d="M0 0 C0.99574036 -0.00021904 0.99574036 -0.00021904 2.01159668 -0.0004425 C4.19754344 0.00025207 6.38340413 0.00802308 8.56933594 0.01586914 C10.08819533 0.01773494 11.60705532 0.01915808 13.12591553 0.02015686 C17.11748932 0.02396929 21.10902656 0.03378869 25.10058594 0.04486084 C29.17610174 0.05510236 33.25162347 0.05966035 37.32714844 0.06469727 C45.31935456 0.07541212 53.31152398 0.09299859 61.30371094 0.11352539 C61.30371094 8.69352539 61.30371094 17.27352539 61.30371094 26.11352539 C36.88371094 26.11352539 12.46371094 26.11352539 -12.69628906 26.11352539 C-12.69628906 4.11352539 -12.69628906 4.11352539 -10.69628906 1.11352539 C-7.25754511 -0.25756291 -3.65632405 -0.00677097 0 0 Z " fill="#4CC0DA" transform="translate(215.6962890625,524.886474609375)"/>
<path d="M0 0 C24.42 0 48.84 0 74 0 C74 7.59 74 15.18 74 23 C49.29952981 25.57296564 24.81681214 26.15863019 0 26 C0 17.42 0 8.84 0 0 Z " fill="#186EBA" transform="translate(801,525)"/>
<path d="M0 0 C8.25 0 16.5 0 25 0 C24.67 24.09 24.34 48.18 24 73 C16.08 73 8.16 73 0 73 C0 48.91 0 24.82 0 0 Z " fill="#3096CA" transform="translate(527,214)"/>
<path d="M0 0 C7.51401791 2.7762719 14.43998322 6.2423187 21.4375 10.125 C23.54894169 11.28353218 25.66092836 12.44107164 27.7734375 13.59765625 C28.81725586 14.17016113 29.86107422 14.74266602 30.93652344 15.33251953 C36.2074193 18.20152007 41.52494851 20.98059745 46.84741211 23.75244141 C51.29101647 26.07359962 55.66218286 28.48623212 60 31 C58.56952311 36.10884605 56.28610306 40.01744261 53.375 44.375 C52.95476562 45.01566406 52.53453125 45.65632813 52.1015625 46.31640625 C51.07370232 47.88155698 50.03768114 49.44134314 49 51 C44.74696588 50.45437026 41.50379257 49.48126342 37.71875 47.48046875 C36.72214355 46.95831787 35.72553711 46.43616699 34.69873047 45.89819336 C33.64314941 45.33366455 32.58756836 44.76913574 31.5 44.1875 C30.40445801 43.60943604 29.30891602 43.03137207 28.18017578 42.43579102 C15.02497254 35.47177306 1.8997452 28.42871506 -11 21 C-10.50479498 15.97176438 -8.76937711 12.41811166 -6.0625 8.25 C-5.70220703 7.67378906 -5.34191406 7.09757812 -4.97070312 6.50390625 C-3.45696196 4.11202794 -2.00728803 2.00728803 0 0 Z " fill="#46B8D7" transform="translate(264,363)"/>
<path d="M0 0 C2.33695323 1.16752664 3.09528988 2.36601155 4.41503906 4.61108398 C5.07922852 5.73643555 5.07922852 5.73643555 5.75683594 6.88452148 C6.42875977 8.06788086 6.42875977 8.06788086 7.11425781 9.27514648 C7.58154297 10.05631836 8.04882812 10.83749023 8.53027344 11.64233398 C11.05253562 15.99388823 11.05253562 15.99388823 11.80175781 17.90014648 C10.80175781 20.90014648 10.80175781 20.90014648 8.09985352 22.51904297 C6.89733553 23.11317274 5.68942747 23.69646535 4.47753906 24.27124023 C3.82765518 24.5899559 3.1777713 24.90867157 2.50819397 25.23704529 C1.10889423 25.9224693 -0.29254727 26.60353445 -1.69586182 27.28070068 C-5.36430614 29.0512754 -9.01764546 30.85239026 -12.67089844 32.65405273 C-13.40020569 33.01301636 -14.12951294 33.37197998 -14.88092041 33.74182129 C-22.20179822 37.36254755 -29.35737558 41.25493642 -36.47045898 45.26904297 C-40.64280593 47.60361489 -44.56288972 49.59504725 -49.19824219 50.90014648 C-50.3275584 49.00688107 -51.45151834 47.11042009 -52.57324219 45.21264648 C-53.51296875 43.6290332 -53.51296875 43.6290332 -54.47167969 42.01342773 C-57.04956045 37.36507713 -58.30759148 34.21352783 -58.19824219 28.90014648 C-56.56935242 28.05506263 -54.94044128 27.21001996 -53.31152344 26.36499023 C-52.2410376 25.80948486 -51.17055176 25.25397949 -50.06762695 24.68164062 C-47.67468448 23.44040707 -45.28052415 22.20156343 -42.88549805 20.96435547 C-36.94454996 17.89331223 -31.01148949 14.80991764 -25.1073761 11.66850281 C-22.46798805 10.26539825 -19.82389206 8.87130616 -17.17929077 7.47805786 C-15.90243532 6.80226911 -14.62785628 6.12216123 -13.35562134 5.43771362 C-11.57071925 4.47805329 -9.77722279 3.53443003 -7.98339844 2.59155273 C-6.96125244 2.04700439 -5.93910645 1.50245605 -4.88598633 0.94140625 C-2.19824219 -0.09985352 -2.19824219 -0.09985352 0 0 Z " fill="#1B74BD" transform="translate(815.1982421875,364.099853515625)"/>
<path d="M0 0 C3.22233883 1.45756395 4.89584997 4.45855653 6.86425781 7.28076172 C7.33774658 7.94382324 7.81123535 8.60688477 8.29907227 9.29003906 C14.00834156 17.34677441 19.48900756 25.56087151 24.86425781 33.84326172 C25.50234375 34.82431885 25.50234375 34.82431885 26.15332031 35.82519531 C27.29735581 37.5952212 28.42789875 39.37287358 29.55175781 41.15576172 C30.174375 42.14189453 30.79699219 43.12802734 31.43847656 44.14404297 C32.82828168 46.77515347 33.46371054 48.91125572 33.86425781 51.84326172 C32.3049246 53.11797877 30.74164076 54.38786386 29.17675781 55.65576172 C28.30664062 56.36345703 27.43652344 57.07115234 26.54003906 57.80029297 C19.83534635 62.91935032 19.83534635 62.91935032 16.94799805 62.69311523 C14.0877364 61.52655744 12.96668547 59.87389204 11.10644531 57.42138672 C10.4100293 56.51453125 9.71361328 55.60767578 8.99609375 54.67333984 C8.29258789 53.73941406 7.58908203 52.80548828 6.86425781 51.84326172 C5.55481366 50.15020395 4.24492667 48.45748858 2.93457031 46.76513672 C-17.91198179 19.50125943 -17.91198179 19.50125943 -21.13574219 12.84326172 C-18.06671933 10.63511671 -14.97847224 8.45554794 -11.88574219 6.28076172 C-11.01304687 5.65234375 -10.14035156 5.02392578 -9.24121094 4.37646484 C-8.396875 3.78671875 -7.55253906 3.19697266 -6.68261719 2.58935547 C-5.90756836 2.03948975 -5.13251953 1.48962402 -4.33398438 0.9230957 C-2.13574219 -0.15673828 -2.13574219 -0.15673828 0 0 Z " fill="#3FADD2" transform="translate(367.1357421875,273.15673828125)"/>
<path d="M0 0 C4.82220255 1.368364 8.71673274 3.48702772 12.8125 6.3125 C13.39708984 6.69083984 13.98167969 7.06917969 14.58398438 7.45898438 C17.11801817 9.1943424 18.81461934 10.62310024 20.1796875 13.3984375 C19.91184767 17.27629243 17.75439057 19.48202575 15.3125 22.3125 C14.28723816 23.55709315 13.26386915 24.80324746 12.2421875 26.05078125 C11.7069043 26.69740723 11.17162109 27.3440332 10.62011719 28.01025391 C7.96581955 31.27012819 5.4502853 34.63053688 2.9375 38 C2.4417749 38.66257812 1.9460498 39.32515625 1.43530273 40.0078125 C-4.19248782 47.55690629 -9.77628138 55.16442207 -15 63 C-19.24607828 62.42870947 -22.05384562 60.95658013 -25.625 58.625 C-27.03652344 57.71621094 -27.03652344 57.71621094 -28.4765625 56.7890625 C-32.80522837 53.72013221 -32.80522837 53.72013221 -34 52 C-33.58426323 47.96979382 -32.22001125 45.45435909 -29.89453125 42.18359375 C-29.24701904 41.26360596 -28.59950684 40.34361816 -27.93237305 39.39575195 C-27.23281494 38.41952881 -26.53325684 37.44330566 -25.8125 36.4375 C-24.74286011 34.92385864 -24.74286011 34.92385864 -23.65161133 33.37963867 C-22.1722263 31.28636698 -20.6896841 29.19532324 -19.20410156 27.10644531 C-15.83728826 22.36128221 -12.51492481 17.58531799 -9.1875 12.8125 C-8.05697983 11.19331857 -6.9255426 9.57477685 -5.79296875 7.95703125 C-5.3239917 7.28647705 -4.85501465 6.61592285 -4.37182617 5.92504883 C-2.94648528 3.92490416 -1.48138436 1.9588982 0 0 Z " fill="#237FC1" transform="translate(711,273)"/>
<path d="M0 0 C2.53271352 1.10364053 3.31962032 2.30709619 4.81420898 4.61865234 C5.59042603 5.7927063 5.59042603 5.7927063 6.38232422 6.99047852 C6.92574463 7.83328369 7.46916504 8.67608887 8.02905273 9.54443359 C12.9216259 16.92454431 18.03395417 23.97539317 23.57592773 30.87646484 C26.46192455 34.47452951 29.22314902 38.14963128 31.96655273 41.85693359 C30.4458883 45.84644146 28.02946784 47.55788085 24.59155273 49.98193359 C23.63506836 50.66513672 22.67858398 51.34833984 21.69311523 52.05224609 C15.80343515 55.95057303 15.80343515 55.95057303 13.05297852 55.64282227 C10.32941067 54.61694292 9.40833754 53.31039651 7.68530273 50.97802734 C7.08073242 50.16317871 6.47616211 49.34833008 5.85327148 48.50878906 C2.66036304 44.02103395 -0.45791706 39.48833981 -3.53344727 34.91943359 C-4.79323497 33.05572704 -6.05364855 31.19244339 -7.31469727 29.32958984 C-7.92442383 28.42869629 -8.53415039 27.52780273 -9.16235352 26.59960938 C-12.07929138 22.32392045 -15.05178656 18.08765286 -18.03344727 13.85693359 C-16.03928366 9.30808799 -13.12150031 7.34924201 -9.15844727 4.54443359 C-8.53325195 4.07714844 -7.90805664 3.60986328 -7.26391602 3.12841797 C-2.6335397 -0.18528686 -2.6335397 -0.18528686 0 0 Z " fill="#237FC1" transform="translate(698.033447265625,756.14306640625)"/>
<path d="M0 0 C4.05611794 1.42332866 7.17537252 3.38591603 10.625 5.9375 C12.03652344 6.97197266 12.03652344 6.97197266 13.4765625 8.02734375 C14.30929687 8.67832031 15.14203125 9.32929687 16 10 C16.62648438 10.47566406 17.25296875 10.95132813 17.8984375 11.44140625 C19 13 19 13 18.95703125 15.328125 C17.73984301 18.72631585 15.96467285 20.94620824 13.6875 23.75 C8.96482487 29.66462142 4.57915488 35.76519078 0.2878418 41.99902344 C-2.89766266 46.58318811 -6.30536421 50.81347483 -10 55 C-15.24881176 54.51342376 -19.0073114 51.73452602 -23.3125 48.9375 C-24.05306641 48.46505859 -24.79363281 47.99261719 -25.55664062 47.50585938 C-27.37551219 46.34412851 -29.1883659 45.17298518 -31 44 C-29.60186678 41.12643114 -28.12978113 38.74350887 -26.125 36.25 C-16.87286105 24.51651817 -8.1389322 12.53251507 0 0 Z " fill="#3FADD2" transform="translate(379,756)"/>
<path d="M0 0 C3.81085857 7.17773362 7.00878667 14.10501383 9 22 C5.52011208 24.9894366 2.25469575 26.9768479 -1.96484375 28.76171875 C-3.09470703 29.24060547 -4.22457031 29.71949219 -5.38867188 30.21289062 C-7.1453418 30.94282227 -7.1453418 30.94282227 -8.9375 31.6875 C-10.10474609 32.18572266 -11.27199219 32.68394531 -12.47460938 33.19726562 C-17.686031 35.38576576 -22.36893674 37.24250729 -28 38 C-29.31942401 35.27399186 -30.63067715 32.54454161 -31.9375 29.8125 C-32.31068359 29.04357422 -32.68386719 28.27464844 -33.06835938 27.48242188 C-34.88091582 23.67768627 -36.46594536 20.23005182 -37 16 C-28.7245001 11.67448661 -20.32832127 7.75067151 -11.75 4.0625 C-10.82098877 3.6610376 -9.89197754 3.2595752 -8.93481445 2.84594727 C-8.06429443 2.47526123 -7.19377441 2.1045752 -6.296875 1.72265625 C-5.51666992 1.39015869 -4.73646484 1.05766113 -3.93261719 0.71508789 C-2 0 -2 0 0 0 Z " fill="#49BDD9" transform="translate(269,661)"/>
<path d="M0 0 C3.196875 -0.020625 6.39375 -0.04125 9.6875 -0.0625 C10.68612061 -0.071604 11.68474121 -0.08070801 12.71362305 -0.09008789 C13.91305542 -0.09383423 13.91305542 -0.09383423 15.13671875 -0.09765625 C15.94842529 -0.10289307 16.76013184 -0.10812988 17.59643555 -0.11352539 C20 0 20 0 25 1 C25 12.88 25 24.76 25 37 C16.75 37 8.5 37 0 37 C0 24.79 0 12.58 0 0 Z " fill="#37A2CE" transform="translate(439,766)"/>
<path d="M0 0 C2.36052293 4.38962573 3.90196588 8.62536654 5.1875 13.4375 C5.53167969 14.69433594 5.87585938 15.95117188 6.23046875 17.24609375 C6.98884436 20.94558085 7.14084262 24.2361025 7 28 C3.65034883 29.01556418 0.29466389 30.00958089 -3.0625 31 C-4.47692383 31.42925781 -4.47692383 31.42925781 -5.91992188 31.8671875 C-11.1296719 33.39199239 -15.57029083 34.36147856 -21 34 C-24.25796796 28.06584406 -26.2938975 22.16340747 -28.16796875 15.66015625 C-28.74188112 13.10352395 -28.74188112 13.10352395 -30 12 C-30.04063832 10.33382885 -30.042721 8.66611905 -30 7 C-26.75045534 6.01931786 -23.50028665 5.04071988 -20.25 4.0625 C-19.32960938 3.78470703 -18.40921875 3.50691406 -17.4609375 3.22070312 C-16.57148438 2.95322266 -15.68203125 2.68574219 -14.765625 2.41015625 C-13.94868164 2.16402588 -13.13173828 1.91789551 -12.29003906 1.66430664 C-8.01327626 0.42368067 -4.49228514 -0.10209739 0 0 Z " fill="#39A2CE" transform="translate(467,263)"/>
<path d="M0 0 C3.31572888 0.90523798 6.62686856 1.8263094 9.9375 2.75 C10.86369141 3.00265625 11.78988281 3.2553125 12.74414062 3.515625 C18.75946208 5.20413629 24.37013178 7.2890327 30 10 C27.60401259 19.58264958 23.31526232 28.16447477 19 37 C9.48639933 35.92165755 1.46098551 33.54386259 -7 29 C-6.54031183 19.23162645 -4.55007343 8.7200833 0 0 Z " fill="#2A8BC6" transform="translate(613,261)"/>
<path d="M0 0 C3.11382402 5.42036034 5.00578157 10.90260083 6.75 16.875 C6.97260498 17.63675537 7.19520996 18.39851074 7.42456055 19.18334961 C9 24.71191215 9 24.71191215 9 27 C-0.926148 30.05539243 -10.77744282 32.24756163 -21 34 C-23.58091543 30.05672451 -25.21872307 26.01320473 -26.6875 21.5625 C-26.91244141 20.91990234 -27.13738281 20.27730469 -27.36914062 19.61523438 C-28.70377155 15.61945485 -29.24038653 12.20351589 -29 8 C-8.58386076 -0.55379747 -8.58386076 -0.55379747 0 0 Z " fill="#1B72BC" transform="translate(818,448)"/>
<path d="M0 0 C6.75523606 1.3606681 13.08575595 3.28709973 19.5625 5.625 C20.47580078 5.94984375 21.38910156 6.2746875 22.33007812 6.609375 C24.55511941 7.40153629 26.77832175 8.1984659 29 9 C26.81761788 17.54210266 24.05221691 25.73609255 21 34 C12.12547339 34.64542012 1.03981413 33.01990706 -7 29 C-7.60690122 18.54781232 -6.89197979 8.39281206 0 0 Z " fill="#48BBD8" transform="translate(262,447)"/>
<path d="M0 0 C1.98533785 2.89041834 2.37014518 5.75469568 3.015625 9.18359375 C3.26699219 10.4675 3.51835937 11.75140625 3.77734375 13.07421875 C4.30301179 16.75762319 4.42915723 20.21945667 4.328125 23.93359375 C-5.87336963 27.18167396 -14.95000951 30.0680372 -25.671875 29.93359375 C-26.34777688 26.56037599 -27.01093018 23.18477133 -27.671875 19.80859375 C-27.86265625 18.85726562 -28.0534375 17.9059375 -28.25 16.92578125 C-29.16944391 12.19721259 -29.9328513 7.7779664 -29.671875 2.93359375 C-22.42431337 0.11509756 -7.16746505 -4.57177093 0 0 Z " fill="#4CC0DA" transform="translate(252.671875,602.06640625)"/>
<path d="M0 0 C8.91 0 17.82 0 27 0 C27.0229132 4.25421714 27.04283889 8.50822157 27.05493164 12.76245117 C27.05997101 14.21070073 27.06680253 15.65894517 27.07543945 17.10717773 C27.08752247 19.18474588 27.09323211 21.26224697 27.09765625 23.33984375 C27.10551147 25.21724243 27.10551147 25.21724243 27.11352539 27.13256836 C27 30 27 30 26 31 C24.07332493 31.08748207 22.14348139 31.10697334 20.21484375 31.09765625 C19.16159912 31.09515869 18.10835449 31.09266113 17.02319336 31.09008789 C15.67491455 31.08098389 14.32663574 31.07187988 12.9375 31.0625 C8.668125 31.041875 4.39875 31.02125 0 31 C0 20.77 0 10.54 0 0 Z " fill="#3490C8" transform="translate(613,773)"/>
<path d="M0 0 C9.24 0 18.48 0 28 0 C28 8.58 28 17.16 28 26 C18.76 26 9.52 26 0 26 C0 17.42 0 8.84 0 0 Z " fill="#2E95C9" transform="translate(525,838)"/>
</svg>
