<svg width="162" height="163" viewBox="0 0 162 163" fill="none" xmlns="http://www.w3.org/2000/svg">
<g filter="url(#filter0_d_2_964)">
<mask id="path-1-inside-1_2_964" fill="white">
<path fill-rule="evenodd" clip-rule="evenodd" d="M99.7464 35.0321C100.614 34.9394 101.12 35.9599 100.607 36.6666C94.9457 44.4789 93.7827 55.1188 98.4976 64.2852C104.645 76.2375 118.643 81.5167 130.956 77.065C131.778 76.768 132.619 77.5374 132.288 78.3459C129.544 85.0591 124.482 90.8642 117.527 94.4416C102.039 102.408 83.0253 96.3108 75.0587 80.8227C67.092 65.3345 73.1894 46.3206 88.6776 38.3539C92.2398 36.5216 95.9885 35.4333 99.7464 35.0321Z"/>
</mask>
<path fill-rule="evenodd" clip-rule="evenodd" d="M99.7464 35.0321C100.614 34.9394 101.12 35.9599 100.607 36.6666C94.9457 44.4789 93.7827 55.1188 98.4976 64.2852C104.645 76.2375 118.643 81.5167 130.956 77.065C131.778 76.768 132.619 77.5374 132.288 78.3459C129.544 85.0591 124.482 90.8642 117.527 94.4416C102.039 102.408 83.0253 96.3108 75.0587 80.8227C67.092 65.3345 73.1894 46.3206 88.6776 38.3539C92.2398 36.5216 95.9885 35.4333 99.7464 35.0321Z" fill="url(#paint0_linear_2_964)"/>
<path d="M130.956 77.065L131.636 78.9458L130.956 77.065ZM132.288 78.3459L134.14 79.1027L132.288 78.3459ZM99.7464 35.0321L99.5341 33.0434L99.7464 35.0321ZM100.276 63.3704C95.9193 54.9002 96.9904 45.0658 102.227 37.8402L98.988 35.4929C92.9011 43.892 91.646 55.3374 96.719 65.2L100.276 63.3704ZM130.276 75.1842C118.897 79.2983 105.958 74.4168 100.276 63.3704L96.719 65.2C103.333 78.0581 118.39 83.7351 131.636 78.9458L130.276 75.1842ZM130.437 77.589C127.866 83.8776 123.128 89.3118 116.613 92.6631L118.442 96.2201C125.837 92.4165 131.222 86.2405 134.14 79.1027L130.437 77.589ZM116.613 92.6631C102.107 100.125 84.2986 94.4138 76.8372 79.9078L73.2802 81.7375C81.7521 98.2079 101.972 104.692 118.442 96.2201L116.613 92.6631ZM76.8372 79.9078C69.3758 65.4019 75.0865 47.5938 89.5925 40.1324L87.7628 36.5754C71.2924 45.0473 64.8083 65.267 73.2802 81.7375L76.8372 79.9078ZM89.5925 40.1324C92.932 38.4147 96.4421 37.3962 99.9587 37.0208L99.5341 33.0434C95.535 33.4704 91.5477 34.6286 87.7628 36.5754L89.5925 40.1324ZM131.636 78.9458C131.283 79.0736 130.916 78.9663 130.682 78.7458C130.428 78.5059 130.252 78.0419 130.437 77.589L134.14 79.1027C134.655 77.8413 134.224 76.5884 133.427 75.836C132.649 75.1029 131.451 74.7594 130.276 75.1842L131.636 78.9458ZM102.227 37.8402C102.959 36.8295 102.961 35.5839 102.473 34.6343C101.971 33.6598 100.888 32.8988 99.5341 33.0434L99.9587 37.0208C99.4728 37.0726 99.0761 36.7756 98.9161 36.4648C98.769 36.179 98.7677 35.7969 98.988 35.4929L102.227 37.8402Z" fill="url(#paint1_linear_2_964)" mask="url(#path-1-inside-1_2_964)"/>
</g>
<defs>
<filter id="filter0_d_2_964" x="0.55957" y="0.0263672" width="160.803" height="162.914" filterUnits="userSpaceOnUse" color-interpolation-filters="sRGB">
<feFlood flood-opacity="0" result="BackgroundImageFix"/>
<feColorMatrix in="SourceAlpha" type="matrix" values="0 0 0 0 0 0 0 0 0 0 0 0 0 0 0 0 0 0 127 0" result="hardAlpha"/>
<feOffset dx="-21" dy="15"/>
<feGaussianBlur stdDeviation="25"/>
<feComposite in2="hardAlpha" operator="out"/>
<feColorMatrix type="matrix" values="0 0 0 0 0.113438 0 0 0 0 0.148981 0 0 0 0 0.275 0 0 0 0.25 0"/>
<feBlend mode="normal" in2="BackgroundImageFix" result="effect1_dropShadow_2_964"/>
<feBlend mode="normal" in="SourceGraphic" in2="effect1_dropShadow_2_964" result="shape"/>
</filter>
<linearGradient id="paint0_linear_2_964" x1="83.1105" y1="41.8423" x2="111.96" y2="97.93" gradientUnits="userSpaceOnUse">
<stop offset="0.0001" stop-color="#D6C2FF"/>
<stop offset="1" stop-color="#7E2FFF"/>
</linearGradient>
<linearGradient id="paint1_linear_2_964" x1="86.476" y1="10.886" x2="104.681" y2="84.4954" gradientUnits="userSpaceOnUse">
<stop stop-color="white"/>
<stop offset="1" stop-color="white" stop-opacity="0"/>
</linearGradient>
</defs>
</svg>
