<svg width="141" height="148" viewBox="0 0 141 148" fill="none" xmlns="http://www.w3.org/2000/svg">
<g filter="url(#filter0_d_3_106)">
<path fill-rule="evenodd" clip-rule="evenodd" d="M79.1868 35.0059C80.0544 34.9132 80.5604 35.9337 80.0474 36.6404C74.3861 44.4527 73.2231 55.0926 77.938 64.259C84.0854 76.2113 98.0834 81.4905 110.396 77.0388C111.218 76.7418 112.059 77.5112 111.728 78.3197C108.984 85.0329 103.922 90.838 96.9674 94.4154C81.4794 102.382 62.4657 96.2846 54.4991 80.7965C46.5324 65.3083 52.6298 46.2944 68.118 38.3277C71.6802 36.4954 75.4289 35.4071 79.1868 35.0059Z" fill="url(#paint0_linear_3_106)"/>
<mask id="mask0_3_106" style="mask-type:luminance" maskUnits="userSpaceOnUse" x="51" y="35" width="61" height="63">
<path fill-rule="evenodd" clip-rule="evenodd" d="M79.1868 35.0059C80.0544 34.9132 80.5604 35.9337 80.0474 36.6404C74.3861 44.4527 73.2231 55.0926 77.938 64.259C84.0854 76.2113 98.0834 81.4905 110.396 77.0388C111.218 76.7418 112.059 77.5112 111.728 78.3197C108.984 85.0329 103.922 90.838 96.9674 94.4154C81.4794 102.382 62.4657 96.2846 54.4991 80.7965C46.5324 65.3083 52.6298 46.2944 68.118 38.3277C71.6802 36.4954 75.4289 35.4071 79.1868 35.0059Z" fill="url(#paint1_linear_3_106)"/>
</mask>
<g mask="url(#mask0_3_106)">
<path d="M79.7164 63.3442C75.3597 54.874 76.4308 45.0396 81.6674 37.814L78.4284 35.4667C72.3415 43.8658 71.0864 55.3112 76.1594 65.1738L79.7164 63.3442ZM109.716 75.158C98.3374 79.2721 85.3984 74.3906 79.7164 63.3442L76.1594 65.1738C82.7734 78.0319 97.8304 83.7089 111.076 78.9196L109.716 75.158ZM109.877 77.5628C107.306 83.8514 102.568 89.2856 96.0534 92.6369L97.8824 96.1939C105.277 92.3903 110.662 86.2143 113.58 79.0765L109.877 77.5628ZM96.0534 92.6369C81.5474 100.099 63.739 94.3876 56.2776 79.8816L52.7206 81.7113C61.1925 98.1817 81.4124 104.666 97.8824 96.1939L96.0534 92.6369ZM56.2776 79.8816C48.8162 65.3757 54.5269 47.5676 69.0329 40.1062L67.2032 36.5492C50.7328 45.0211 44.2487 65.2408 52.7206 81.7113L56.2776 79.8816ZM69.0329 40.1062C72.3724 38.3885 75.8825 37.37 79.3991 36.9946L78.9745 33.0172C74.9754 33.4442 70.9881 34.6024 67.2032 36.5492L69.0329 40.1062ZM111.076 78.9196C110.723 79.0474 110.356 78.9401 110.122 78.7196C109.868 78.4797 109.692 78.0157 109.877 77.5628L113.58 79.0765C114.095 77.8151 113.664 76.5622 112.867 75.8098C112.089 75.0767 110.891 74.7332 109.716 75.158L111.076 78.9196ZM81.6674 37.814C82.3994 36.8033 82.4014 35.5577 81.9134 34.6081C81.4114 33.6336 80.3284 32.8726 78.9745 33.0172L79.3991 36.9946C78.9132 37.0464 78.5165 36.7494 78.3565 36.4386C78.2094 36.1528 78.2081 35.7707 78.4284 35.4667L81.6674 37.814Z" fill="url(#paint2_linear_3_106)"/>
</g>
</g>
<defs>
<filter id="filter0_d_3_106" x="-20" y="0" width="160.802" height="162.914" filterUnits="userSpaceOnUse" color-interpolation-filters="sRGB">
<feFlood flood-opacity="0" result="BackgroundImageFix"/>
<feColorMatrix in="SourceAlpha" type="matrix" values="0 0 0 0 0 0 0 0 0 0 0 0 0 0 0 0 0 0 127 0" result="hardAlpha"/>
<feOffset dx="-21" dy="15"/>
<feGaussianBlur stdDeviation="25"/>
<feComposite in2="hardAlpha" operator="out"/>
<feColorMatrix type="matrix" values="0 0 0 0 0.113438 0 0 0 0 0.148981 0 0 0 0 0.275 0 0 0 0.25 0"/>
<feBlend mode="normal" in2="BackgroundImageFix" result="effect1_dropShadow_3_106"/>
<feBlend mode="normal" in="SourceGraphic" in2="effect1_dropShadow_3_106" result="shape"/>
</filter>
<linearGradient id="paint0_linear_3_106" x1="62.5509" y1="41.8161" x2="91.4004" y2="97.9038" gradientUnits="userSpaceOnUse">
<stop offset="0.0001" stop-color="#D6C2FF"/>
<stop offset="1" stop-color="#7E2FFF"/>
</linearGradient>
<linearGradient id="paint1_linear_3_106" x1="65.9164" y1="10.8598" x2="84.1214" y2="84.4692" gradientUnits="userSpaceOnUse">
<stop stop-color="white"/>
<stop offset="1" stop-color="white" stop-opacity="0"/>
</linearGradient>
<linearGradient id="paint2_linear_3_106" x1="65.9164" y1="10.8598" x2="84.1214" y2="84.4692" gradientUnits="userSpaceOnUse">
<stop stop-color="white"/>
<stop offset="1" stop-color="white" stop-opacity="0"/>
</linearGradient>
</defs>
</svg>
