<svg width="275" height="315" viewBox="0 0 275 315" fill="none" xmlns="http://www.w3.org/2000/svg">
<path d="M150.719 45.379C123.247 81.3902 117.618 129.899 140.396 169.351C163.173 208.803 207.997 228.183 252.92 222.396C243.131 235.228 230.568 246.473 215.529 255.156C158.283 288.207 86.8319 271.622 55.9381 218.112C25.0444 164.603 46.4069 94.4317 103.653 61.3809C118.692 52.6979 134.712 47.4408 150.719 45.379Z" fill="url(#paint0_linear_113_29)"/>
<g filter="url(#filter0_i_113_29)">
<path d="M207.765 18.3823C197.249 23.0521 193.144 26.9984 189.382 36.7646C186.386 27.3001 182.702 23.0785 171 18.3823C183.038 14.4602 186.305 9.9199 189.382 1.14382e-05C193.164 9.14263 195.499 14.1323 207.765 18.3823Z" fill="url(#paint1_linear_113_29)"/>
</g>
<path d="M274.765 58.3823C264.249 63.0521 260.144 66.9984 256.382 76.7646C253.386 67.3001 249.702 63.0785 238 58.3823C250.038 54.4602 253.305 49.9199 256.382 40C260.164 49.1426 262.499 54.1323 274.765 58.3823Z" fill="url(#paint2_linear_113_29)"/>
<g filter="url(#filter1_i_113_29)">
<path d="M226.765 123.382C216.249 128.052 212.144 131.998 208.382 141.765C205.386 132.3 201.702 128.079 190 123.382C202.038 119.46 205.305 114.92 208.382 105C212.164 114.143 214.499 119.132 226.765 123.382Z" fill="url(#paint3_linear_113_29)"/>
</g>
<defs>
<filter id="filter0_i_113_29" x="171" y="0" width="36.7646" height="40.7646" filterUnits="userSpaceOnUse" color-interpolation-filters="sRGB">
<feFlood flood-opacity="0" result="BackgroundImageFix"/>
<feBlend mode="normal" in="SourceGraphic" in2="BackgroundImageFix" result="shape"/>
<feColorMatrix in="SourceAlpha" type="matrix" values="0 0 0 0 0 0 0 0 0 0 0 0 0 0 0 0 0 0 127 0" result="hardAlpha"/>
<feOffset dy="4"/>
<feGaussianBlur stdDeviation="2"/>
<feComposite in2="hardAlpha" operator="arithmetic" k2="-1" k3="1"/>
<feColorMatrix type="matrix" values="0 0 0 0 1 0 0 0 0 1 0 0 0 0 1 0 0 0 0.44 0"/>
<feBlend mode="normal" in2="shape" result="effect1_innerShadow_113_29"/>
</filter>
<filter id="filter1_i_113_29" x="190" y="105" width="36.7646" height="40.7646" filterUnits="userSpaceOnUse" color-interpolation-filters="sRGB">
<feFlood flood-opacity="0" result="BackgroundImageFix"/>
<feBlend mode="normal" in="SourceGraphic" in2="BackgroundImageFix" result="shape"/>
<feColorMatrix in="SourceAlpha" type="matrix" values="0 0 0 0 0 0 0 0 0 0 0 0 0 0 0 0 0 0 127 0" result="hardAlpha"/>
<feOffset dy="4"/>
<feGaussianBlur stdDeviation="2"/>
<feComposite in2="hardAlpha" operator="arithmetic" k2="-1" k3="1"/>
<feColorMatrix type="matrix" values="0 0 0 0 1 0 0 0 0 1 0 0 0 0 1 0 0 0 0.44 0"/>
<feBlend mode="normal" in2="shape" result="effect1_innerShadow_113_29"/>
</filter>
<linearGradient id="paint0_linear_113_29" x1="72.9407" y1="79.1124" x2="184.817" y2="272.888" gradientUnits="userSpaceOnUse">
<stop stop-color="#A981FF"/>
<stop offset="0.055" stop-color="#A77CFF"/>
<stop offset="0.94" stop-color="#8134FF"/>
</linearGradient>
<linearGradient id="paint1_linear_113_29" x1="184.064" y1="38.4872" x2="201.366" y2="6.0026" gradientUnits="userSpaceOnUse">
<stop stop-color="#FF9900"/>
<stop offset="1" stop-color="#FFEE94"/>
</linearGradient>
<linearGradient id="paint2_linear_113_29" x1="251.064" y1="78.4872" x2="268.366" y2="46.0026" gradientUnits="userSpaceOnUse">
<stop stop-color="#FF9900"/>
<stop offset="1" stop-color="#FFEE94"/>
</linearGradient>
<linearGradient id="paint3_linear_113_29" x1="203.064" y1="143.487" x2="220.366" y2="111.003" gradientUnits="userSpaceOnUse">
<stop stop-color="#FF9900"/>
<stop offset="1" stop-color="#FFEE94"/>
</linearGradient>
</defs>
</svg>
