<svg width="311" height="267" viewBox="0 0 311 267" fill="none" xmlns="http://www.w3.org/2000/svg">
<g filter="url(#filter0_i_8_7)">
<path d="M295 131C295 188.438 248.438 235 191 235C133.562 235 87 188.438 87 131C87 73.5624 133.562 27 191 27C248.438 27 295 73.5624 295 131Z" fill="url(#paint0_linear_8_7)"/>
</g>
<g filter="url(#filter1_b_8_7)">
<g filter="url(#filter2_i_8_7)">
<path d="M250.326 184.629C251.049 180.524 251.426 176.302 251.426 171.993C251.426 131.68 218.441 99 177.752 99C147.503 99 121.512 117.061 110.166 142.893C100.974 135.03 89.0468 130.283 76.0124 130.283C46.949 130.283 23.3884 153.885 23.3884 183C23.3884 184.621 23.4615 186.225 23.6045 187.809C9.62549 194.593 0 208.828 0 225.29C0 248.326 18.8484 267 42.0992 267H240.901C264.152 267 283 248.326 283 225.29C283 205.464 269.039 188.869 250.326 184.629Z" fill="url(#paint1_linear_8_7)"/>
</g>
</g>
<defs>
<filter id="filter0_i_8_7" x="87" y="27" width="208" height="213" filterUnits="userSpaceOnUse" color-interpolation-filters="sRGB">
<feFlood flood-opacity="0" result="BackgroundImageFix"/>
<feBlend mode="normal" in="SourceGraphic" in2="BackgroundImageFix" result="shape"/>
<feColorMatrix in="SourceAlpha" type="matrix" values="0 0 0 0 0 0 0 0 0 0 0 0 0 0 0 0 0 0 127 0" result="hardAlpha"/>
<feOffset dy="5"/>
<feGaussianBlur stdDeviation="9"/>
<feComposite in2="hardAlpha" operator="arithmetic" k2="-1" k3="1"/>
<feColorMatrix type="matrix" values="0 0 0 0 1 0 0 0 0 1 0 0 0 0 1 0 0 0 0.81 0"/>
<feBlend mode="normal" in2="shape" result="effect1_innerShadow_8_7"/>
</filter>
<filter id="filter1_b_8_7" x="-27" y="72" width="337" height="222" filterUnits="userSpaceOnUse" color-interpolation-filters="sRGB">
<feFlood flood-opacity="0" result="BackgroundImageFix"/>
<feGaussianBlur in="BackgroundImageFix" stdDeviation="13.5"/>
<feComposite in2="SourceAlpha" operator="in" result="effect1_backgroundBlur_8_7"/>
<feBlend mode="normal" in="SourceGraphic" in2="effect1_backgroundBlur_8_7" result="shape"/>
</filter>
<filter id="filter2_i_8_7" x="0" y="99" width="283" height="178" filterUnits="userSpaceOnUse" color-interpolation-filters="sRGB">
<feFlood flood-opacity="0" result="BackgroundImageFix"/>
<feBlend mode="normal" in="SourceGraphic" in2="BackgroundImageFix" result="shape"/>
<feColorMatrix in="SourceAlpha" type="matrix" values="0 0 0 0 0 0 0 0 0 0 0 0 0 0 0 0 0 0 127 0" result="hardAlpha"/>
<feOffset dy="11"/>
<feGaussianBlur stdDeviation="5"/>
<feComposite in2="hardAlpha" operator="arithmetic" k2="-1" k3="1"/>
<feColorMatrix type="matrix" values="0 0 0 0 1 0 0 0 0 1 0 0 0 0 1 0 0 0 1 0"/>
<feBlend mode="normal" in2="shape" result="effect1_innerShadow_8_7"/>
</filter>
<linearGradient id="paint0_linear_8_7" x1="175.203" y1="187.608" x2="260.772" y2="37.5317" gradientUnits="userSpaceOnUse">
<stop stop-color="#FF9900"/>
<stop offset="1" stop-color="#FFEE94"/>
</linearGradient>
<linearGradient id="paint1_linear_8_7" x1="18" y1="252" x2="303.5" y2="38.4999" gradientUnits="userSpaceOnUse">
<stop stop-color="white"/>
<stop offset="1" stop-color="white" stop-opacity="0.58"/>
</linearGradient>
</defs>
</svg>
