<svg width="80" height="80" viewBox="0 0 2010 2010" fill="none" xmlns="http://www.w3.org/2000/svg">
<path d="M1005 585.7C985.109 585.7 966.032 577.798 951.967 563.733C937.902 549.668 930 530.591 930 510.7V330.15C930 310.259 937.902 291.182 951.967 277.117C966.032 263.052 985.109 255.15 1005 255.15C1024.89 255.15 1043.97 263.052 1058.03 277.117C1072.1 291.182 1080 310.259 1080 330.15V510.7C1080 520.549 1078.06 530.302 1074.29 539.401C1070.52 548.501 1065 556.769 1058.03 563.733C1051.07 570.697 1042.8 576.222 1033.7 579.991C1024.6 583.76 1014.85 585.7 1005 585.7Z" fill="url(#paint0_linear_2_3)"/>
<path d="M577.62 762.72C567.772 762.724 558.02 760.783 548.925 757.008C539.83 753.232 531.57 747.697 524.62 740.72L396.92 613.09C382.852 599.023 374.947 579.943 374.947 560.049C374.946 540.154 382.848 521.073 396.915 507.005C410.982 492.937 430.062 485.033 449.956 485.032C469.851 485.031 488.932 492.933 503 507L630.66 634.69C641.136 645.179 648.268 658.537 651.157 673.076C654.045 687.616 652.56 702.686 646.889 716.382C641.218 730.079 631.615 741.787 619.293 750.029C606.972 758.271 592.484 762.677 577.66 762.69L577.62 762.72Z" fill="url(#paint1_linear_2_3)"/>
<path d="M400.6 1190.1H220.05C200.159 1190.1 181.082 1182.2 167.017 1168.13C152.952 1154.07 145.05 1134.99 145.05 1115.1C145.05 1095.21 152.952 1076.13 167.017 1062.07C181.082 1048 200.159 1040.1 220.05 1040.1H400.6C420.491 1040.1 439.568 1048 453.633 1062.07C467.698 1076.13 475.6 1095.21 475.6 1115.1C475.6 1134.99 467.698 1154.07 453.633 1168.13C439.568 1182.2 420.491 1190.1 400.6 1190.1Z" fill="url(#paint2_linear_2_3)"/>
<path d="M1790 1190.1H1609.4C1589.51 1190.1 1570.43 1182.2 1556.37 1168.13C1542.3 1154.07 1534.4 1134.99 1534.4 1115.1C1534.4 1095.21 1542.3 1076.13 1556.37 1062.07C1570.43 1048 1589.51 1040.1 1609.4 1040.1H1790C1809.89 1040.1 1828.97 1048 1843.03 1062.07C1857.1 1076.13 1865 1095.21 1865 1115.1C1865 1134.99 1857.1 1154.07 1843.03 1168.13C1828.97 1182.2 1809.89 1190.1 1790 1190.1Z" fill="url(#paint3_linear_2_3)"/>
<path d="M1432.38 762.72C1417.56 762.707 1403.07 758.301 1390.75 750.059C1378.43 741.817 1368.82 730.109 1363.15 716.412C1357.48 702.716 1356 687.646 1358.88 673.106C1361.77 658.567 1368.9 645.209 1379.38 634.72L1507 507C1521.07 492.934 1540.14 485.032 1560.04 485.032C1579.93 485.032 1599 492.934 1613.07 507C1627.14 521.066 1635.04 540.143 1635.04 560.035C1635.04 579.927 1627.14 599.004 1613.07 613.07L1485.41 740.75C1478.45 747.726 1470.19 753.258 1461.09 757.029C1451.99 760.799 1442.23 762.733 1432.38 762.72Z" fill="url(#paint4_linear_2_3)"/>
<path d="M645.13 1205.81C625.239 1205.81 606.162 1197.91 592.097 1183.84C578.032 1169.78 570.13 1150.7 570.13 1130.81C570.13 1015.48 615.947 904.864 697.5 823.31C779.054 741.757 889.665 695.94 1005 695.94C1120.33 695.94 1230.95 741.757 1312.5 823.31C1394.05 904.864 1439.87 1015.48 1439.87 1130.81C1439.87 1150.7 1431.97 1169.78 1417.9 1183.84C1403.84 1197.91 1384.76 1205.81 1364.87 1205.81H645.13Z" fill="url(#paint5_linear_2_3)"/>
<path d="M1184.5 1510.71C1170.7 1524.51 1152.06 1532.38 1132.55 1532.66C1113.04 1532.94 1094.19 1525.6 1080 1512.2V1679.84C1080 1699.74 1072.1 1718.81 1058.03 1732.88C1043.97 1746.94 1024.89 1754.84 1005 1754.84C985.109 1754.84 966.032 1746.94 951.967 1732.88C937.902 1718.81 930 1699.74 930 1679.84V1512.2C915.642 1525.56 896.625 1532.76 877.022 1532.27C857.418 1531.77 838.789 1523.62 825.125 1509.55C811.46 1495.49 803.848 1476.63 803.918 1457.02C803.988 1437.41 811.735 1418.61 825.5 1404.64L952 1278.18C966.065 1264.12 985.14 1256.22 1005.03 1256.22C1024.92 1256.22 1044 1264.12 1058.06 1278.18L1184.53 1404.64C1191.49 1411.61 1197.02 1419.88 1200.78 1428.98C1204.55 1438.08 1206.49 1447.84 1206.48 1457.69C1206.48 1467.53 1204.54 1477.29 1200.77 1486.39C1196.99 1495.48 1191.47 1503.75 1184.5 1510.71Z" fill="url(#paint6_linear_2_3)"/>
<defs>
<linearGradient id="paint0_linear_2_3" x1="-88.4801" y1="1662.77" x2="1698.57" y2="-367.58" gradientUnits="userSpaceOnUse">
<stop offset="0.06" stop-color="#FF6800"/>
<stop offset="1" stop-color="#FFF100"/>
</linearGradient>
<linearGradient id="paint1_linear_2_3" x1="-264.35" y1="1507.97" x2="1522.7" y2="-522.37" gradientUnits="userSpaceOnUse">
<stop offset="0.06" stop-color="#FF6800"/>
<stop offset="1" stop-color="#FFF100"/>
</linearGradient>
<linearGradient id="paint2_linear_2_3" x1="-135.38" y1="1621.49" x2="1651.67" y2="-408.86" gradientUnits="userSpaceOnUse">
<stop offset="0.06" stop-color="#FF6800"/>
<stop offset="1" stop-color="#FFF100"/>
</linearGradient>
<linearGradient id="paint3_linear_2_3" x1="647.48" y1="2310.54" x2="2434.53" y2="280.19" gradientUnits="userSpaceOnUse">
<stop offset="0.06" stop-color="#FF6800"/>
<stop offset="1" stop-color="#FFF100"/>
</linearGradient>
<linearGradient id="paint4_linear_2_3" x1="289.22" y1="1995.21" x2="2076.27" y2="-35.1405" gradientUnits="userSpaceOnUse">
<stop offset="0.06" stop-color="#FF6800"/>
<stop offset="1" stop-color="#FFF100"/>
</linearGradient>
<linearGradient id="paint5_linear_2_3" x1="518.85" y1="1746.22" x2="1535.1" y2="338.11" gradientUnits="userSpaceOnUse">
<stop offset="0.06" stop-color="#FF6800"/>
<stop offset="1" stop-color="#FFF100"/>
</linearGradient>
<linearGradient id="paint6_linear_2_3" x1="803.54" y1="1505.53" x2="1206.46" y2="1505.53" gradientUnits="userSpaceOnUse">
<stop stop-color="#69BBFF"/>
<stop offset="1" stop-color="#1798FF"/>
</linearGradient>
</defs>
</svg>
