<svg width="20" height="23" viewBox="0 0 20 23" fill="none" xmlns="http://www.w3.org/2000/svg">
<path d="M10 0.585693L14.4142 4.99991L13 6.41412L11 4.41412V9.99991H9V4.41412L7 6.41412L5.58579 4.99991L10 0.585693Z" fill="white"/>
<path d="M3 9.58569L5.41421 11.9999L4 13.4141L1.58579 10.9999L3 9.58569Z" fill="white"/>
<path d="M18.4142 10.9999L16 13.4141L14.5858 11.9999L17 9.58569L18.4142 10.9999Z" fill="white"/>
<path fill-rule="evenodd" clip-rule="evenodd" d="M0 18.9999V16.9999H4.08296C4.55904 14.1622 7.027 11.9999 10 11.9999C12.973 11.9999 15.441 14.1622 15.917 16.9999H20V18.9999H0ZM13.874 16.9999C13.4299 15.2747 11.8638 13.9999 10 13.9999C8.13616 13.9999 6.57006 15.2747 6.12602 16.9999H13.874Z" fill="white"/>
<path d="M3 20.9999H17V22.9999H3V20.9999Z" fill="white"/>
</svg>
