<?xml version="1.0" ?><svg data-name="Layer 2" id="Layer_2" viewBox="0 0 2010 2010" xmlns="http://www.w3.org/2000/svg" xmlns:xlink="http://www.w3.org/1999/xlink"><defs><style>.cls-1{fill:url(#linear-gradient);}.cls-2{fill:url(#linear-gradient-2);}.cls-3{fill:url(#linear-gradient-3);}.cls-4{fill:url(#linear-gradient-4);}.cls-5{fill:url(#linear-gradient-5);}.cls-6{fill:url(#linear-gradient-6);}.cls-7{fill:url(#linear-gradient-7);}</style><linearGradient gradientUnits="userSpaceOnUse" id="linear-gradient" x1="-88.48" x2="1698.57" y1="1662.77" y2="-367.58"><stop offset="0.06" stop-color="#ff6800"/><stop offset="1" stop-color="#fff100"/></linearGradient><linearGradient id="linear-gradient-2" x1="-264.35" x2="1522.7" xlink:href="#linear-gradient" y1="1507.97" y2="-522.37"/><linearGradient id="linear-gradient-3" x1="-135.38" x2="1651.67" xlink:href="#linear-gradient" y1="1621.49" y2="-408.86"/><linearGradient id="linear-gradient-4" x1="647.48" x2="2434.53" xlink:href="#linear-gradient" y1="2310.54" y2="280.19"/><linearGradient id="linear-gradient-5" x1="289.22" x2="2076.27" xlink:href="#linear-gradient" y1="1995.21" y2="-35.14"/><linearGradient id="linear-gradient-6" x1="518.85" x2="1535.1" xlink:href="#linear-gradient" y1="1746.22" y2="338.11"/><linearGradient gradientUnits="userSpaceOnUse" id="linear-gradient-7" x1="803.54" x2="1206.46" y1="1505.53" y2="1505.53"><stop offset="0" stop-color="#69bbff"/><stop offset="1" stop-color="#1798ff"/></linearGradient></defs><path class="cls-1" d="M1005,585.7a75,75,0,0,1-75-75V330.15a75,75,0,0,1,150,0V510.7A75,75,0,0,1,1005,585.7Z"/><path class="cls-2" d="M577.62,762.72a74.76,74.76,0,0,1-53-22L396.92,613.09A75,75,0,0,1,503,507L630.66,634.69a75,75,0,0,1-53,128Z"/><path class="cls-3" d="M400.6,1190.1H220.05a75,75,0,1,1,0-150H400.6a75,75,0,0,1,0,150Z"/><path class="cls-4" d="M1790,1190.1H1609.4a75,75,0,0,1,0-150H1790a75,75,0,1,1,0,150Z"/><path class="cls-5" d="M1432.38,762.72a75,75,0,0,1-53-128L1507,507a75,75,0,1,1,106.07,106.07L1485.41,740.75A74.74,74.74,0,0,1,1432.38,762.72Z"/><path class="cls-6" d="M645.13,1205.81a75,75,0,0,1-75-75,434.87,434.87,0,1,1,869.74,0,75,75,0,0,1-75,75Z"/><path class="cls-7" d="M1184.5,1500.35a75,75,0,0,0-104.5-1.49V1331.22a75,75,0,0,0-150,0v167.64a75,75,0,0,0-104.5,107.56L952,1732.88a75,75,0,0,0,106.06,0l126.47-126.46A75,75,0,0,0,1184.5,1500.35Z"/></svg>