<svg width="160" height="124" viewBox="0 0 160 124" fill="none" xmlns="http://www.w3.org/2000/svg">
<path fill-rule="evenodd" clip-rule="evenodd" d="M128.8 62.4C146.031 62.4 160 48.4313 160 31.2C160 13.9687 146.031 0 128.8 0C111.569 0 97.6 13.9687 97.6 31.2C97.6 33.4091 99.3909 35.2 101.6 35.2C103.809 35.2 105.6 33.4091 105.6 31.2C105.6 18.387 115.987 8 128.8 8C141.613 8 152 18.387 152 31.2C152 44.013 141.613 54.4 128.8 54.4C128.526 54.4 128.258 54.4275 128 54.48C127.741 54.4275 127.474 54.4 127.2 54.4H4C1.79086 54.4 0 56.1909 0 58.4C0 60.6091 1.79086 62.4 4 62.4H127.2C127.474 62.4 127.741 62.3725 128 62.32C128.258 62.3725 128.526 62.4 128.8 62.4ZM0 74.4C0 76.6091 1.79086 78.4 4 78.4H97.6C107.762 78.4 116 86.638 116 96.8C116 106.962 107.762 115.2 97.6 115.2C95.3909 115.2 93.6 116.991 93.6 119.2C93.6 121.409 95.3909 123.2 97.6 123.2C112.18 123.2 124 111.38 124 96.8C124 83.5383 114.222 72.5605 101.482 70.6833C101.023 70.5005 100.523 70.4 100 70.4H97.6H4C1.79086 70.4 0 72.1909 0 74.4ZM4 86.4C1.79086 86.4 0 88.1909 0 90.4C0 92.6091 1.79086 94.4 4 94.4H76.8C79.0091 94.4 80.8 92.6091 80.8 90.4C80.8 88.1909 79.0091 86.4 76.8 86.4H4Z" fill="white"/>
</svg>
